<svg id="Calque_1" xmlns="http://www.w3.org/2000/svg" viewBox="0 0 374.57 185.45"><defs><style>.cls-1{fill:#f6d58f;}.cls-2{fill:#fff;}</style></defs><polygon class="cls-1" points="294.35 50.68 292.88 35.07 295.88 35.08 294.35 50.68 294.35 50.68"></polygon><polygon class="cls-1" points="290.78 49.07 280.88 41.25 283.01 39.14 290.78 49.07 290.78 49.07"></polygon><polygon class="cls-1" points="297.94 49.07 305.74 39.18 307.85 41.31 297.94 49.07 297.94 49.07"></polygon><polygon class="cls-2" points="34.46 57.67 35.71 112.21 37.46 57.68 34.46 57.67"></polygon><polygon class="cls-2" points="54.36 113.71 54.36 110.71 35.71 112.21 54.36 113.71"></polygon><path class="cls-2" d="M337.11,113.09h3l-.38-13.83-.09-3.46c-.23-3.67-1.63-7.21-3.98-10-6.12-7.63-18.41-8.13-25.01-.96l-1.02-1.02c-3.24,3.39-5.01,8.07-4.87,12.65.39,15.03,18.68,22.5,29.11,11.59-10.2,9.65-27.2,2.49-26.86-11.59.11-4.01,1.88-7.87,4.74-10.53l-1.1-1.1c8.76-8.44,23.96-4.16,26.55,7.79.52,1.91.33,4.69.28,6.65l-.38,13.8Z"></path><path class="cls-2" d="M64.92,108.94l22.51-23.66.48-.5s-.48-.47-.48-.47c-6.37-6.48-17.74-6.37-23.92.24-5.99,5.89-6.23,16.13-.79,22.35l-.02.02.86.86c.07.06.12.14.19.2-.03-.03-.06-.06-.09-.1l.1.1c5.94,6.94,17.47,7.42,24.25,1.06l-2.12-2.12c-5.06,5.98-14.67,6.76-20.97,2.02ZM64,85.03c5.82-5.92,16.06-5.96,21.95-.24l-23.2,22.08c-5.17-6.25-4.74-16.26,1.25-21.84Z"></path><path class="cls-2" d="M198.52,108.89l22.51-23.66.48-.5s-.48-.47-.48-.47c-6.37-6.48-17.74-6.37-23.92.24-5.99,5.89-6.23,16.13-.79,22.35l-.02.02.86.86c.07.06.12.14.19.2-.03-.03-.06-.06-.09-.1l.1.1c5.94,6.94,17.47,7.42,24.25,1.06l-2.12-2.12c-5.06,5.98-14.67,6.76-20.97,2.02ZM197.59,84.98c5.82-5.92,16.06-5.96,21.95-.24l-23.2,22.08c-5.17-6.25-4.74-16.26,1.25-21.84Z"></path><path class="cls-2" d="M162.93,94.03c-.1-1.76-.06-4.28-.55-5.95-1.81-8.72-12.62-11.33-19.13-6.03,6.38-4.75,16.72-2.06,18.02,6.28.41,1.64.18,4.02.13,5.69l-.24,5.85-.49,13.84h3l-.49-13.83-.24-5.85Z"></path><path class="cls-2" d="M182.77,94.03c-.1-1.76-.06-4.28-.55-5.95-1.81-8.72-12.62-11.33-19.13-6.03,6.38-4.75,16.72-2.06,18.02,6.28.41,1.64.18,4.02.13,5.69l-.24,5.85-.49,13.84h3l-.49-13.83-.25-5.85Z"></path><polygon class="cls-2" points="141.68 113.71 143.25 79.31 140.25 79.31 141.68 113.71"></polygon><path class="cls-2" d="M261.33,91.53c-2.29-15.74-16.47-13.29-27.81-9.18,10.52-3.18,24.77-5.48,26.05,9.32.07,1.87-.13,4.78-.15,6.73l-.42,15.31h3l-.42-15.31c-.09-2.07-.08-4.79-.26-6.87Z"></path><polygon class="cls-2" points="230.5 113.71 233.5 113.71 232 79.2 230.5 113.71"></polygon><path class="cls-2" d="M272.4,99.77c-.8,7.71,3.85,12.77,11.33,13.94l.24-2.99c-.72-.05-1.46-.06-2.18-.14-5.8-.7-9.14-5.1-9.39-10.81Z"></path><polygon class="cls-2" points="283.86 80.66 273.31 79.28 273.9 65.98 270.9 65.98 272.4 99.77 273.19 82.06 283.86 80.66"></polygon><polygon class="cls-2" points="294.37 98.35 295.87 65.44 292.87 65.44 294.37 98.35"></polygon><path class="cls-2" d="M115.5,78.23v1.5c-1.44-.14-2.88-.03-4.32.12-11.15,1.76-17.43,14.19-12.68,24.37l1.3-.74c.6,1.31,1.41,2.51,2.26,3.67,7.1,8.77,21,8,27.44-1.2l-1.29-.76c.83-1.17,1.47-2.47,2.05-3.79,4.05-10.53-3.58-22.19-14.76-23.17ZM129.91,101.26c-.46,1.35-.97,2.69-1.7,3.92l-1.3-.76c-.25.45-.66,1.04-1.06,1.53-5.78,7.35-17.05,7.68-23.5.95-.94-1.07-1.84-2.19-2.55-3.43l1.3-.74c-.27-.44-.57-1.09-.8-1.68-3.48-8.68,1.88-18.6,10.93-20.83,1.39-.28,2.81-.5,4.25-.49v1.5c.5-.01,1.22.05,1.85.15,9.26,1.33,15.17,10.93,12.57,19.88Z"></path><path class="cls-2" d="M156.68,150.33c-.27,0-.41-.13-.41-.39v-11.12c0-.26.14-.39.41-.39h5.92c.19,0,.29.13.29.39v.22c0,.26-.1.39-.29.39h-5.17v4.32h4.66c.19,0,.29.13.29.39v.2c0,.26-.1.39-.29.39h-4.66v4.59h5.18c.18,0,.27.13.27.39v.22c0,.26-.09.39-.27.39h-5.93Z"></path><path class="cls-2" d="M172.18,150.37c-.17,0-.31-.03-.41-.08-.1-.05-.17-.12-.21-.2l-4.2-11.27s-.02-.07-.03-.09,0-.06,0-.09c0-.08.04-.14.13-.18.09-.04.21-.06.38-.06h.12c.15,0,.27.02.37.05.1.03.16.1.2.19l3.84,10.61h.07l3.81-10.61c.03-.09.1-.15.19-.19.09-.03.21-.05.36-.05h.09c.18,0,.31.02.39.06.08.04.12.1.12.18,0,.03,0,.06,0,.09s-.01.07-.03.11l-4.18,11.25c-.03.08-.1.14-.2.2s-.24.08-.41.08h-.37Z"></path><path class="cls-2" d="M183.25,150.33c-.27,0-.41-.13-.41-.39v-11.12c0-.26.14-.39.41-.39h5.92c.19,0,.29.13.29.39v.22c0,.26-.1.39-.29.39h-5.17v4.32h4.66c.19,0,.29.13.29.39v.2c0,.26-.1.39-.29.39h-4.66v4.59h5.18c.18,0,.27.13.27.39v.22c0,.26-.09.39-.27.39h-5.93Z"></path><path class="cls-2" d="M196.03,150.37c-.18,0-.31-.03-.39-.08-.08-.05-.12-.13-.12-.23v-11.36c0-.1.04-.18.12-.23.08-.05.21-.08.39-.08h.31c.09,0,.17,0,.24.03.07.02.13.04.19.08.06.04.1.09.14.16l5.56,8.69c.09.15.18.3.28.47.1.16.19.35.28.55l.07-.02c-.01-.19-.02-.37-.03-.54s0-.37,0-.6v-8.52c0-.1.04-.18.12-.23.08-.05.21-.08.39-.08h.14c.18,0,.31.03.39.08.08.05.12.13.12.23v11.36c0,.1-.04.18-.12.23-.08.05-.21.08-.39.08h-.29c-.09,0-.17,0-.23-.03-.06-.02-.12-.04-.16-.08-.05-.03-.08-.07-.12-.12l-5.63-8.81c-.1-.15-.2-.31-.28-.48s-.18-.35-.28-.54l-.07.02c.02.19.03.37.03.54v9.19c0,.1-.04.18-.11.23-.07.05-.21.08-.4.08h-.14Z"></path><path class="cls-2" d="M213.9,150.37c-.17,0-.29-.03-.37-.08-.07-.05-.11-.13-.11-.23v-10.62h-3.5c-.18,0-.27-.13-.27-.39v-.22c0-.26.09-.39.27-.39h8.09c.19,0,.29.13.29.39v.22c0,.26-.1.39-.29.39h-3.43v10.62c0,.1-.04.18-.11.23-.07.05-.2.08-.37.08h-.2Z"></path><polygon class="cls-2" points="67.36 72.02 77.36 59.94 79.48 62.07 67.36 72.02 67.36 72.02"></polygon></svg>